<svg xmlns="http://www.w3.org/2000/svg" width="151" height="45" viewBox="0 0 151 45" fill="none"><path d="M66.1816 25.0003V6.80027H68.9376V14.6003H77.7516V6.80027H80.5076V25.0003H77.7516V16.8623H68.9376V25.0003H66.1816ZM88.837 25.3123C87.5716 25.3123 86.445 25.035 85.457 24.4803C84.4863 23.9083 83.7236 23.1196 83.169 22.1143C82.6143 21.109 82.337 19.939 82.337 18.6043C82.337 17.2523 82.6056 16.065 83.143 15.0423C83.6976 14.0196 84.4603 13.2223 85.431 12.6503C86.419 12.0783 87.563 11.7923 88.863 11.7923C90.1283 11.7923 91.229 12.0783 92.165 12.6503C93.101 13.205 93.829 13.9503 94.349 14.8863C94.869 15.8223 95.129 16.8536 95.129 17.9803C95.129 18.1536 95.1203 18.3443 95.103 18.5523C95.103 18.743 95.0943 18.9596 95.077 19.2023H85.041C85.1276 20.4503 85.535 21.4036 86.263 22.0623C87.0083 22.7036 87.8663 23.0243 88.837 23.0243C89.617 23.0243 90.267 22.851 90.787 22.5043C91.3243 22.1403 91.723 21.655 91.983 21.0483H94.739C94.3923 22.2616 93.699 23.2756 92.659 24.0903C91.6363 24.905 90.3623 25.3123 88.837 25.3123ZM88.837 14.0543C87.9183 14.0543 87.1036 14.3316 86.393 14.8863C85.6823 15.4236 85.249 16.2383 85.093 17.3303H92.373C92.321 16.325 91.9656 15.5276 91.307 14.9383C90.6483 14.349 89.825 14.0543 88.837 14.0543ZM101.057 25.3123C99.9646 25.3123 99.0632 25.1303 98.3526 24.7663C97.6419 24.4023 97.1132 23.9256 96.7666 23.3363C96.4199 22.7296 96.2466 22.071 96.2466 21.3603C96.2466 20.1123 96.7319 19.1243 97.7026 18.3963C98.6732 17.6683 100.06 17.3043 101.863 17.3043H105.243V17.0703C105.243 16.065 104.966 15.311 104.411 14.8083C103.874 14.3056 103.172 14.0543 102.305 14.0543C101.542 14.0543 100.875 14.245 100.303 14.6263C99.7479 14.9903 99.4099 15.5363 99.2886 16.2643H96.5326C96.6192 15.3283 96.9312 14.531 97.4686 13.8723C98.0232 13.1963 98.7166 12.685 99.5486 12.3383C100.398 11.9743 101.326 11.7923 102.331 11.7923C104.134 11.7923 105.529 12.269 106.517 13.2223C107.505 14.1583 107.999 15.441 107.999 17.0703V25.0003H105.607L105.373 22.7903C105.009 23.501 104.48 24.099 103.787 24.5843C103.094 25.0696 102.184 25.3123 101.057 25.3123ZM101.603 23.0763C102.348 23.0763 102.972 22.903 103.475 22.5563C103.995 22.1923 104.394 21.7156 104.671 21.1263C104.966 20.537 105.148 19.887 105.217 19.1763H102.149C101.057 19.1763 100.277 19.367 99.8086 19.7483C99.3579 20.1296 99.1326 20.6063 99.1326 21.1783C99.1326 21.7676 99.3492 22.2356 99.7826 22.5823C100.234 22.9116 100.84 23.0763 101.603 23.0763ZM109.912 25.0003V6.28027H112.668V25.0003H109.912ZM120.266 25.0003C119.001 25.0003 117.996 24.697 117.25 24.0903C116.505 23.4663 116.132 22.3656 116.132 20.7883V14.4183H113.922V12.1043H116.132L116.47 8.82827H118.888V12.1043H122.528V14.4183H118.888V20.7883C118.888 21.499 119.036 21.993 119.33 22.2703C119.642 22.5303 120.171 22.6603 120.916 22.6603H122.398V25.0003H120.266ZM124.07 25.0003V6.28027H126.826V14.1843C127.259 13.439 127.857 12.8583 128.62 12.4423C129.4 12.009 130.258 11.7923 131.194 11.7923C132.737 11.7923 133.95 12.2776 134.834 13.2483C135.718 14.219 136.16 15.6663 136.16 17.5903V25.0003H133.43V17.8763C133.43 15.3803 132.433 14.1323 130.44 14.1323C129.4 14.1323 128.533 14.4963 127.84 15.2243C127.164 15.9523 126.826 16.9923 126.826 18.3443V25.0003H124.07ZM139.208 30.7203L142.302 23.9343H141.548L136.452 12.1043H139.442L143.394 21.6463L147.528 12.1043H150.44L142.12 30.7203H139.208Z" fill="#193139"></path><path d="M8.9895 35.3351C8.90132 35.4055 8.80014 35.4579 8.69172 35.4893C8.5833 35.5206 8.46976 35.5303 8.3576 35.5177C8.24544 35.5052 8.13685 35.4707 8.03803 35.4162C7.9392 35.3617 7.85209 35.2882 7.78164 35.2001C6.69177 33.8357 5.99309 32.2008 5.76029 30.4702L5.61205 29.3674C5.5961 29.2551 5.60253 29.1408 5.63097 29.031C5.65941 28.9213 5.70929 28.8182 5.77774 28.7278C5.84619 28.6374 5.93186 28.5614 6.0298 28.5043C6.12775 28.4471 6.23603 28.4099 6.34842 28.3948C6.46081 28.3797 6.57507 28.387 6.68463 28.4163C6.79419 28.4455 6.89687 28.4962 6.98676 28.5653C7.07665 28.6344 7.15197 28.7207 7.20838 28.819C7.26479 28.9174 7.30117 29.026 7.31543 29.1385L7.46368 30.2412C7.65489 31.6631 8.22893 33.0064 9.12442 34.1274C9.26667 34.3054 9.33237 34.5327 9.30707 34.7592C9.28176 34.9857 9.16753 35.1928 8.9895 35.3351ZM10.6416 36.0264C10.4989 35.8499 10.2921 35.7371 10.0664 35.7126C9.84071 35.6881 9.61451 35.7538 9.43716 35.8955C9.25982 36.0372 9.14573 36.2433 9.11982 36.4688C9.09391 36.6944 9.15828 36.921 9.29887 37.0992L10.0575 38.0488C10.1277 38.1377 10.2147 38.2119 10.3137 38.2671C10.4126 38.3223 10.5215 38.3574 10.6341 38.3703C10.7467 38.3832 10.8607 38.3738 10.9696 38.3425C11.0785 38.3112 11.1801 38.2587 11.2686 38.1879C11.3571 38.1172 11.4308 38.0297 11.4854 37.9304C11.5399 37.8311 11.5743 37.722 11.5865 37.6093C11.5988 37.4967 11.5886 37.3828 11.5566 37.2741C11.5247 37.1654 11.4715 37.064 11.4003 36.976L10.6416 36.0264ZM52.2798 21.4824C52.2863 23.8706 51.8191 26.2363 50.9052 28.4427C49.9913 30.649 48.6488 32.6522 46.9555 34.3363C45.3686 35.9286 44.3544 38.0021 44.0718 40.2324L43.8956 41.6423C43.8111 42.3183 43.4858 42.9414 42.9794 43.3972C42.4731 43.853 41.8194 44.1112 41.1382 44.1244C40.457 44.1376 39.7938 43.905 39.2701 43.4691C38.7464 43.0332 38.3973 42.4233 38.2867 41.751L36.9622 35.7051C36.9583 35.6874 36.955 35.6696 36.9523 35.6514C36.9471 35.6178 36.9301 35.5871 36.9043 35.565C36.8785 35.5429 36.8456 35.5307 36.8116 35.5307C36.7776 35.5307 36.7447 35.5429 36.7189 35.565C36.6931 35.5871 36.6761 35.6178 36.6709 35.6514C36.6681 35.6693 36.6648 35.6871 36.6609 35.7051L35.3353 41.751C35.2247 42.4233 34.8757 43.0333 34.352 43.4693C33.8284 43.9053 33.1652 44.138 32.4839 44.1248C31.8027 44.1116 31.149 43.8535 30.6426 43.3976C30.1361 42.9418 29.8109 42.3187 29.7264 41.6426L29.55 40.2324C29.5409 40.1597 29.5286 40.0878 29.5178 40.0155L28.8923 41.0997C28.4257 41.9035 27.781 42.5895 27.0076 43.105C26.2342 43.6204 25.3528 43.9515 24.4314 44.0727C23.5099 44.194 22.5729 44.1021 21.6925 43.8043C20.8121 43.5065 20.0118 43.0106 19.3532 42.3548C19.1836 42.1823 18.9813 42.0453 18.7581 41.9519C18.5349 41.8586 18.2954 41.8106 18.0534 41.8109H18.0496C17.8067 41.8103 17.566 41.8578 17.3416 41.9508C17.1172 42.0437 16.9134 42.1803 16.7421 42.3525C15.6024 43.4845 14.0623 44.1214 12.456 44.125H12.3271C11.3036 44.1272 10.2963 43.8693 9.39979 43.3757C8.50323 42.882 7.74676 42.1687 7.20135 41.3026L3.7718 35.8694C1.40267 32.1047 0.365187 27.6539 0.825434 23.2296C0.838354 23.1066 0.877676 22.9878 0.940713 22.8814C1.00375 22.775 1.08902 22.6834 1.19069 22.613C1.29236 22.5426 1.40803 22.4949 1.52981 22.4733C1.6516 22.4516 1.77661 22.4565 1.89632 22.4877C2.26002 22.5862 2.63488 22.6376 3.01168 22.6406C4.09867 22.6353 5.14359 22.2198 5.93746 21.4773C6.73133 20.7348 7.21563 19.7199 7.29352 18.6357C7.30185 18.5174 7.3346 18.4021 7.38969 18.297C7.44479 18.1919 7.52104 18.0994 7.61364 18.0253C7.70624 17.9511 7.8132 17.8969 7.92776 17.8662C8.04233 17.8354 8.16203 17.8286 8.27933 17.8464C8.52666 17.8875 8.77672 17.9102 9.02742 17.9141C10.1073 17.9087 11.1532 17.5355 11.9924 16.8559C12.8317 16.1763 13.4143 15.231 13.6441 14.1758C13.6731 14.0407 13.7342 13.9147 13.8222 13.8083C13.9103 13.7018 14.0226 13.6182 14.1499 13.5645C14.2771 13.5107 14.4154 13.4884 14.5531 13.4995C14.6908 13.5105 14.8238 13.5546 14.9408 13.6279C15.9515 14.2575 16.8182 15.0931 17.4843 16.0801C17.9482 13.6405 18.9467 11.334 20.4082 9.32636C21.8696 7.3187 23.7577 5.65974 25.9367 4.46871L27.0909 3.83911C27.19 3.78456 27.299 3.75012 27.4114 3.73776C27.5239 3.72539 27.6376 3.73535 27.7462 3.76707C27.8548 3.79878 27.9561 3.85162 28.0442 3.92256C28.1323 3.9935 28.2056 4.08114 28.2597 4.18045C28.3139 4.27976 28.348 4.38879 28.3599 4.50129C28.3718 4.61378 28.3614 4.72753 28.3293 4.836C28.2972 4.94447 28.244 5.04553 28.1727 5.13339C28.1014 5.22124 28.0135 5.29416 27.914 5.34796L26.7598 5.97767C23.2565 7.89286 20.6548 11.1182 19.5244 14.9474C20.7695 13.6459 22.3965 12.7745 24.1699 12.4593C25.9432 12.1441 27.7709 12.4014 29.3883 13.1941C29.4712 13.1916 29.5538 13.1877 29.6373 13.1877C31.0909 13.1826 32.52 13.5618 33.7798 14.287C35.0396 15.0122 36.0854 16.0575 36.811 17.317C37.7272 15.7395 39.1378 14.5081 40.8246 13.8132C42.5113 13.1184 44.38 12.9989 46.1415 13.4732C47.903 13.9476 49.4589 14.9894 50.5686 16.4373C51.6782 17.8853 52.2797 19.6586 52.2798 21.4828V21.4824ZM28.8804 37.6818C28.3725 36.4304 27.6199 35.293 26.6665 34.3363C24.9732 32.6522 23.6308 30.649 22.7169 28.4427C21.8029 26.2363 21.3357 23.8706 21.3423 21.4824C21.3438 19.938 21.776 18.4247 22.5903 17.1125C23.4045 15.8002 24.5686 14.741 25.9517 14.054C25.8533 14.0496 25.7549 14.0467 25.6563 14.0467C24.332 14.0462 23.0366 14.4344 21.9307 15.163C20.8249 15.8917 19.9572 16.9289 19.4351 18.146C19.3275 18.4067 19.1472 18.6311 18.9158 18.7923C18.6844 18.9536 18.4115 19.045 18.1296 19.0556C17.8219 19.0757 17.5155 18.9999 17.2526 18.8387C16.9898 18.6774 16.7834 18.4387 16.6619 18.1552C16.2727 17.2358 15.681 16.4161 14.931 15.7571C14.427 16.9048 13.6011 17.8816 12.5533 18.5695C11.5056 19.2574 10.2808 19.6267 9.02742 19.6328C8.97836 19.6328 8.92973 19.6321 8.88154 19.6307C8.58414 20.9676 7.84123 22.1637 6.77468 23.0229C5.70813 23.8821 4.38126 24.3534 3.01168 24.3594C2.82907 24.3594 2.64645 24.3505 2.46158 24.3323C2.26501 28.0723 3.23024 31.7814 5.2249 34.9512L8.65402 40.3829C9.04499 41.0035 9.58719 41.5147 10.2298 41.8685C10.8724 42.2223 11.5943 42.4071 12.3278 42.4056H12.4568C13.6074 42.4031 14.7107 41.947 15.5273 41.1363C15.8583 40.805 16.2513 40.5421 16.684 40.3629C17.1167 40.1836 17.5805 40.0915 18.0488 40.0917C18.5171 40.092 18.9808 40.1846 19.4133 40.3642C19.8458 40.5439 20.2386 40.8071 20.5693 41.1388C21.0416 41.6084 21.6154 41.9635 22.2465 42.1767C22.8775 42.3898 23.5491 42.4553 24.2095 42.3683C24.8699 42.2812 25.5015 42.0438 26.0557 41.6743C26.61 41.3048 27.0721 40.8131 27.4065 40.2371L28.8804 37.6818ZM50.561 21.4826C50.5611 20.0011 50.0609 18.563 49.1415 17.4013C48.2222 16.2396 46.9375 15.4224 45.4957 15.082C44.0538 14.7416 42.5393 14.898 41.1974 15.5259C39.8556 16.1538 38.7651 17.2163 38.1025 18.5414C37.9826 18.7813 37.7982 18.983 37.5701 19.124C37.342 19.2649 37.0791 19.3396 36.811 19.3396C36.5428 19.3396 36.2799 19.2649 36.0518 19.124C35.8237 18.983 35.6393 18.7813 35.5194 18.5414C34.8569 17.2163 33.7664 16.1537 32.4246 15.5258C31.0827 14.8979 29.5682 14.7415 28.1264 15.0818C26.6845 15.4222 25.3998 16.2394 24.4805 17.4011C23.5611 18.5628 23.061 20.0009 23.061 21.4824C23.0551 23.6447 23.4781 25.7868 24.3056 27.7845C25.1331 29.7823 26.3486 31.5961 27.8818 33.1209C29.7386 34.9838 30.9251 37.4098 31.2556 40.0191L31.4319 41.429C31.4652 41.6962 31.594 41.9422 31.7945 42.1218C31.995 42.3014 32.2537 42.4024 32.5229 42.4062C32.7921 42.41 33.0536 42.3164 33.2591 42.1425C33.4646 41.9686 33.6003 41.7263 33.6411 41.4602C33.6439 41.4424 33.6472 41.4245 33.6511 41.4065L34.9766 35.3594C35.0506 34.9265 35.2754 34.5337 35.6111 34.2505C35.9468 33.9674 36.3718 33.8121 36.811 33.8121C37.2502 33.8121 37.6752 33.9674 38.0109 34.2505C38.3467 34.5337 38.5714 34.9265 38.6455 35.3594L39.9709 41.4072C39.9748 41.4248 39.9781 41.4427 39.9808 41.4609C40.0217 41.727 40.1575 41.9692 40.363 42.143C40.5685 42.3169 40.8299 42.4105 41.099 42.4067C41.3682 42.4029 41.6269 42.3019 41.8274 42.1224C42.0279 41.9429 42.1568 41.6969 42.1902 41.4298L42.3663 40.0199C42.6969 37.4106 43.8834 34.9845 45.7401 33.1217C47.2734 31.5968 48.489 29.7829 49.3165 27.785C50.144 25.7871 50.567 23.6449 50.561 21.4824V21.4826ZM38.1454 24.0441C37.7308 24.2502 37.274 24.3574 36.811 24.3574C36.3479 24.3574 35.8912 24.2502 35.4765 24.0441C35.3755 23.9933 35.2655 23.963 35.1528 23.9548C35.0401 23.9466 34.9269 23.9607 34.8196 23.9963C34.7124 24.032 34.6132 24.0884 34.5278 24.1624C34.4424 24.2364 34.3724 24.3265 34.3218 24.4276C34.2713 24.5287 34.2412 24.6387 34.2333 24.7515C34.2253 24.8642 34.2397 24.9774 34.2755 25.0846C34.3114 25.1918 34.368 25.2908 34.4422 25.3761C34.5164 25.4613 34.6067 25.5311 34.7079 25.5814C35.3614 25.9063 36.0812 26.0753 36.811 26.0753C37.5407 26.0753 38.2606 25.9063 38.914 25.5814C39.0152 25.5311 39.1055 25.4613 39.1797 25.3761C39.2539 25.2908 39.3105 25.1918 39.3464 25.0846C39.3822 24.9774 39.3966 24.8642 39.3887 24.7515C39.3807 24.6387 39.3506 24.5287 39.3001 24.4276C39.2495 24.3265 39.1795 24.2364 39.0941 24.1624C39.0087 24.0884 38.9095 24.032 38.8023 23.9963C38.695 23.9607 38.5818 23.9466 38.4691 23.9548C38.3564 23.963 38.2464 23.9933 38.1454 24.0441ZM33.3735 20.0625C33.1456 20.0625 32.927 20.153 32.7658 20.3142C32.6047 20.4754 32.5141 20.694 32.5141 20.9219V21.7813C32.5141 22.0092 32.6047 22.2278 32.7658 22.3889C32.927 22.5501 33.1456 22.6406 33.3735 22.6406C33.6014 22.6406 33.82 22.5501 33.9812 22.3889C34.1423 22.2278 34.2329 22.0092 34.2329 21.7813V20.9219C34.2329 20.694 34.1423 20.4754 33.9812 20.3142C33.82 20.153 33.6014 20.0625 33.3735 20.0625ZM40.2485 20.0625C40.0206 20.0625 39.802 20.153 39.6408 20.3142C39.4797 20.4754 39.3891 20.694 39.3891 20.9219V21.7813C39.3891 22.0092 39.4797 22.2278 39.6408 22.3889C39.802 22.5501 40.0206 22.6406 40.2485 22.6406C40.4764 22.6406 40.695 22.5501 40.8562 22.3889C41.0173 22.2278 41.1079 22.0092 41.1079 21.7813V20.9219C41.1079 20.694 41.0173 20.4754 40.8562 20.3142C40.695 20.153 40.4764 20.0625 40.2485 20.0625ZM27.2664 24.8363C26.78 23.8162 26.5365 22.6972 26.555 21.5672L26.5665 20.9108C26.5705 20.6829 26.4838 20.4627 26.3255 20.2987C26.1672 20.1347 25.9502 20.0403 25.7223 20.0363C25.4944 20.0323 25.2742 20.119 25.1102 20.2773C24.9462 20.4356 24.8518 20.6526 24.8478 20.8805L24.8362 21.537C24.8134 22.9337 25.1143 24.3168 25.7154 25.5778C25.815 25.7813 25.9909 25.9373 26.2049 26.0118C26.4188 26.0863 26.6536 26.0732 26.858 25.9755C27.0624 25.8778 27.22 25.7033 27.2964 25.49C27.3728 25.2767 27.3619 25.0418 27.266 24.8365L27.2664 24.8363ZM28.5752 27.05C28.5129 26.9559 28.4326 26.875 28.3391 26.8119C28.2455 26.7488 28.1404 26.7047 28.0298 26.6823C27.9192 26.6598 27.8053 26.6593 27.6945 26.6809C27.5837 26.7024 27.4782 26.7456 27.3841 26.8079C27.29 26.8702 27.2091 26.9504 27.1461 27.044C27.083 27.1376 27.0389 27.2427 27.0164 27.3533C26.994 27.4639 26.9935 27.5778 27.015 27.6886C27.0366 27.7994 27.0798 27.9048 27.1421 27.9989L27.909 29.1569C28.0353 29.3459 28.2313 29.4771 28.4541 29.5219C28.6769 29.5667 28.9084 29.5213 29.0979 29.3959C29.2874 29.2704 29.4194 29.0749 29.4652 28.8523C29.5109 28.6297 29.4666 28.398 29.342 28.208L28.5752 27.05ZM5.8734 9.75H4.15465V11.4688H5.8734V9.75ZM4.15465 14.9063H5.8734V13.1875H4.15465V14.9063ZM7.59215 13.1875V11.4688H5.8734V13.1875H7.59215ZM4.15465 11.4688H2.4359V13.1875H4.15465V11.4688ZM41.1078 6.3125H39.389V8.03125H41.1078V6.3125ZM39.389 11.4688H41.1078V9.75H39.389V11.4688ZM42.8265 9.75V8.03125H41.1078V9.75H42.8265ZM39.389 8.03125H37.6703V9.75H39.389V8.03125ZM47.9828 0.296875H46.264V2.01563H47.9828V0.296875ZM47.9828 5.45313H46.264V7.17188H47.9828V5.45313ZM50.5609 2.875H48.8422V4.59375H50.5609V2.875ZM45.4047 2.875H43.6859V4.59375H45.4047V2.875Z" fill="url(#paint0_linear)"></path><path d="M70.4354 43.216C69.5114 43.216 68.7014 43.054 68.0054 42.73C67.3094 42.406 66.7634 41.944 66.3674 41.344C65.9834 40.744 65.7854 40.03 65.7734 39.202H67.7894C67.8014 39.874 68.0354 40.444 68.4914 40.912C68.9474 41.38 69.5894 41.614 70.4174 41.614C71.1494 41.614 71.7194 41.44 72.1274 41.092C72.5474 40.732 72.7574 40.276 72.7574 39.724C72.7574 39.28 72.6554 38.92 72.4514 38.644C72.2594 38.368 71.9894 38.14 71.6414 37.96C71.3054 37.78 70.9154 37.618 70.4714 37.474C70.0274 37.33 69.5594 37.174 69.0674 37.006C68.0954 36.682 67.3634 36.262 66.8714 35.746C66.3914 35.23 66.1514 34.552 66.1514 33.712C66.1394 33.004 66.3014 32.386 66.6374 31.858C66.9854 31.33 67.4654 30.922 68.0774 30.634C68.7014 30.334 69.4274 30.184 70.2554 30.184C71.0714 30.184 71.7854 30.334 72.3974 30.634C73.0214 30.934 73.5074 31.354 73.8554 31.894C74.2034 32.422 74.3834 33.04 74.3954 33.748H72.3794C72.3794 33.424 72.2954 33.118 72.1274 32.83C71.9594 32.53 71.7134 32.284 71.3894 32.092C71.0654 31.9 70.6694 31.804 70.2014 31.804C69.6014 31.792 69.1034 31.942 68.7074 32.254C68.3234 32.566 68.1314 32.998 68.1314 33.55C68.1314 34.042 68.2754 34.42 68.5634 34.684C68.8514 34.948 69.2474 35.17 69.7514 35.35C70.2554 35.518 70.8314 35.716 71.4794 35.944C72.1034 36.148 72.6614 36.394 73.1534 36.682C73.6454 36.97 74.0354 37.348 74.3234 37.816C74.6234 38.284 74.7734 38.878 74.7734 39.598C74.7734 40.234 74.6114 40.828 74.2874 41.38C73.9634 41.92 73.4774 42.364 72.8294 42.712C72.1814 43.048 71.3834 43.216 70.4354 43.216ZM75.8874 43V34.072H77.5794L77.7414 35.332C78.0294 34.876 78.4074 34.516 78.8754 34.252C79.3554 33.988 79.9074 33.856 80.5314 33.856C81.9474 33.856 82.9314 34.414 83.4834 35.53C83.8074 35.014 84.2394 34.606 84.7794 34.306C85.3314 34.006 85.9254 33.856 86.5614 33.856C87.6774 33.856 88.5534 34.192 89.1894 34.864C89.8254 35.536 90.1434 36.538 90.1434 37.87V43H88.2354V38.068C88.2354 36.34 87.5754 35.476 86.2554 35.476C85.5834 35.476 85.0314 35.728 84.5994 36.232C84.1794 36.736 83.9694 37.456 83.9694 38.392V43H82.0614V38.068C82.0614 36.34 81.3954 35.476 80.0634 35.476C79.4034 35.476 78.8574 35.728 78.4254 36.232C78.0054 36.736 77.7954 37.456 77.7954 38.392V43H75.8874ZM92.5557 32.38C92.1957 32.38 91.8957 32.272 91.6557 32.056C91.4277 31.828 91.3137 31.546 91.3137 31.21C91.3137 30.874 91.4277 30.598 91.6557 30.382C91.8957 30.154 92.1957 30.04 92.5557 30.04C92.9157 30.04 93.2097 30.154 93.4377 30.382C93.6777 30.598 93.7977 30.874 93.7977 31.21C93.7977 31.546 93.6777 31.828 93.4377 32.056C93.2097 32.272 92.9157 32.38 92.5557 32.38ZM91.6017 43V34.072H93.5097V43H91.6017ZM95.1284 43V30.04H97.0364V43H95.1284ZM102.728 43.216C101.852 43.216 101.072 43.024 100.388 42.64C99.7167 42.244 99.1887 41.698 98.8047 41.002C98.4207 40.306 98.2287 39.496 98.2287 38.572C98.2287 37.636 98.4147 36.814 98.7867 36.106C99.1707 35.398 99.6987 34.846 100.37 34.45C101.054 34.054 101.846 33.856 102.746 33.856C103.622 33.856 104.384 34.054 105.032 34.45C105.68 34.834 106.184 35.35 106.544 35.998C106.904 36.646 107.084 37.36 107.084 38.14C107.084 38.26 107.078 38.392 107.066 38.536C107.066 38.668 107.06 38.818 107.048 38.986H100.1C100.16 39.85 100.442 40.51 100.946 40.966C101.462 41.41 102.056 41.632 102.728 41.632C103.268 41.632 103.718 41.512 104.078 41.272C104.45 41.02 104.726 40.684 104.906 40.264H106.814C106.574 41.104 106.094 41.806 105.374 42.37C104.666 42.934 103.784 43.216 102.728 43.216ZM102.728 35.422C102.092 35.422 101.528 35.614 101.036 35.998C100.544 36.37 100.244 36.934 100.136 37.69H105.176C105.14 36.994 104.894 36.442 104.438 36.034C103.982 35.626 103.412 35.422 102.728 35.422ZM111.728 43.216C110.6 43.216 109.67 42.94 108.938 42.388C108.206 41.836 107.786 41.104 107.678 40.192H109.604C109.7 40.6 109.928 40.954 110.288 41.254C110.648 41.542 111.122 41.686 111.71 41.686C112.286 41.686 112.706 41.566 112.97 41.326C113.234 41.086 113.366 40.81 113.366 40.498C113.366 40.042 113.18 39.736 112.808 39.58C112.448 39.412 111.944 39.262 111.296 39.13C110.792 39.022 110.288 38.878 109.784 38.698C109.292 38.518 108.878 38.266 108.542 37.942C108.218 37.606 108.056 37.156 108.056 36.592C108.056 35.812 108.356 35.164 108.956 34.648C109.556 34.12 110.396 33.856 111.476 33.856C112.472 33.856 113.276 34.096 113.888 34.576C114.512 35.056 114.878 35.734 114.986 36.61H113.15C113.09 36.226 112.91 35.926 112.61 35.71C112.322 35.494 111.932 35.386 111.44 35.386C110.96 35.386 110.588 35.488 110.324 35.692C110.06 35.884 109.928 36.136 109.928 36.448C109.928 36.76 110.108 37.006 110.468 37.186C110.84 37.366 111.326 37.528 111.926 37.672C112.526 37.804 113.078 37.96 113.582 38.14C114.098 38.308 114.512 38.56 114.824 38.896C115.136 39.232 115.292 39.724 115.292 40.372C115.304 41.188 114.986 41.866 114.338 42.406C113.702 42.946 112.832 43.216 111.728 43.216Z" fill="#54737B"></path><defs><linearGradient id="paint0_linear" x1="7.91539" y1="42.2269" x2="48.9142" y2="1.22801" gradientUnits="userSpaceOnUse"><stop stop-color="#35E0D1"></stop><stop offset="1" stop-color="#EE83EF"></stop></linearGradient></defs></svg>